<?xml version="1.0" encoding="utf-8"?>
<!-- Generator: Adobe Illustrator 16.2.1, SVG Export Plug-In . SVG Version: 6.00 Build 0)  -->
<!DOCTYPE svg PUBLIC "-//W3C//DTD SVG 1.1//EN" "http://www.w3.org/Graphics/SVG/1.1/DTD/svg11.dtd">
<svg version="1.1" xmlns="http://www.w3.org/2000/svg" xmlns:xlink="http://www.w3.org/1999/xlink" x="0px" y="0px" width="30px"
	 height="300px" viewBox="0 0 30 300" enable-background="new 0 0 30 300" xml:space="preserve">
<g id="_x3C_Background_x3E__xA0_0_xA0_Image_1_" display="none">
	
		<image display="inline" overflow="visible" width="30" height="300" id="_x3C_Background_x3E__xA0_0_xA0_Image" xlink:href="443610482CE79FF2.png" >
	</image>
</g>
<g id="Image_xA0_48_1_" display="none">
	<g id="Image_xA0_11_1_">
		<g id="total_area" display="inline">
			<g>
				<rect fill="#C8D2C7" width="30" height="30"/>
			</g>
		</g>
		<g id="total_area_1_" display="inline">
			<g>
				<rect y="120" fill="#E6E0E0" width="30" height="30"/>
			</g>
		</g>
		<g id="total_area_2_" display="inline">
			<g>
				<rect y="30" fill="#31722E" width="30" height="30"/>
			</g>
		</g>
		<g id="total_area_3_" display="inline">
			<g>
				<rect y="150" fill="#722E2E" width="30" height="30"/>
			</g>
		</g>
		<g id="total_area_4_" display="inline">
			<g>
				<rect y="60" fill="#0B8084" width="30" height="30"/>
			</g>
		</g>
		<g id="total_area_5_" display="inline">
			<g>
				<rect y="180" fill="#9F279E" width="30" height="30"/>
			</g>
		</g>
		<g id="total_area_6_" display="inline">
			<g>
				<rect y="90" fill="#4BC52E" width="30" height="30"/>
			</g>
		</g>
		<g id="total_area_7_" display="inline">
			<g>
				<rect y="210" fill="#E055DE" width="30" height="30"/>
			</g>
		</g>
	</g>
	<g id="disabled_radio_1_" display="inline">
		<g id="radio_xA0_Image_5_">
			
				<image overflow="visible" width="30" height="29" id="radio_xA0_Image_4_" xlink:href="443610482CE79FF6.png"  transform="matrix(1 0 0 1 0 271)">
			</image>
		</g>
		<g id="dot_xA0_Image_3_">
			
				<image overflow="visible" width="12" height="12" id="dot_xA0_Image_2_" xlink:href="443610482CE79FF1.png"  transform="matrix(1 0 0 1 9 281)">
			</image>
		</g>
	</g>
	<g id="disabled_checkbox_1_" display="inline">
		<g id="checkbox_xA0_Image_5_">
			
				<image overflow="visible" width="30" height="30" id="checkbox_xA0_Image_4_" xlink:href="443610482CE79FF3.png"  transform="matrix(1 0 0 1 0 241)">
			</image>
		</g>
		<g id="check_xA0_Image_3_">
			
				<image overflow="visible" width="18" height="14" id="check_xA0_Image_2_" xlink:href="443610482CE79FF0.png"  transform="matrix(1 0 0 1 7 249)">
			</image>
		</g>
	</g>
	<g id="radio_marked_1_" display="inline">
		<g id="radio_xA0_Image_3_">
			
				<image overflow="visible" width="30" height="30" id="radio_xA0_Image_2_" xlink:href="443610482CE79FFE.png"  transform="matrix(1 0 0 1 0 181)">
			</image>
		</g>
		<g id="dot_xA0_Image_1_">
			
				<image overflow="visible" width="12" height="12" id="dot_xA0_Image" xlink:href="443610482CE79FF5.png"  transform="matrix(1 0 0 1 9 191)">
			</image>
		</g>
	</g>
	<g id="radio_4_" display="inline">
		<g id="radio_xA0_Image_1_">
			
				<image overflow="visible" width="30" height="30" id="radio_xA0_Image" xlink:href="443610482CE79FF7.png"  transform="matrix(1 0 0 1 0 121)">
			</image>
		</g>
	</g>
	<g id="checkbox_marked_1_" display="inline">
		<g id="checkbox_xA0_Image_3_">
			
				<image overflow="visible" width="30" height="30" id="checkbox_xA0_Image_2_" xlink:href="443610482CE79FF4.png"  transform="matrix(1 0 0 1 0 61)">
			</image>
		</g>
		<g id="check_xA0_Image_1_">
			
				<image overflow="visible" width="18" height="14" id="check_xA0_Image" xlink:href="DBD05A6E7D7A1E45.png"  transform="matrix(1 0 0 1 7 69)">
			</image>
		</g>
	</g>
	<g id="checkbox_4_" display="inline">
		<g id="checkbox_xA0_Image_1_">
			
				<image overflow="visible" width="30" height="30" id="checkbox_xA0_Image" xlink:href="DBD05A6E7D7A1E5B.png"  transform="matrix(1 0 0 1 0 1)">
			</image>
		</g>
	</g>
</g>
<g id="Group_2_1_">
	<g id="check_3_">
		<g id="Rounded_Rectangle_2">
			<g>
				<path fill="#FFFFFF" d="M20,66H8c-1.657,0-3,1.343-3,3v12c0,1.657,1.343,3,3,3h12c1.656,0,3-1.343,3-3V69
					C23,67.343,21.656,66,20,66z"/>
			</g>
		</g>
		<g id="Shape_5">
			<g>
				<path fill="#95CA76" d="M24.611,70.414l-2.16-2.051c-0.516-0.489-1.359-0.489-1.874,0l-7.895,7.499l-3.269-3.105
					c-0.516-0.49-1.359-0.49-1.875,0l-2.16,2.051c-0.515,0.489-0.515,1.29,0,1.78l6.365,6.045C12.002,82.878,12.342,83,12.682,83
					c0.34,0,0.681-0.122,0.939-0.367l10.99-10.438C25.127,71.705,25.127,70.904,24.611,70.414z"/>
			</g>
		</g>
	</g>
	<g id="check_copy_3_1_">
		<g id="Rounded_Rectangle_2_1_">
			<g>
				<path fill="#FFFFFF" d="M20,96H8c-1.657,0-3,1.343-3,3v12c0,1.657,1.343,3,3,3h12c1.656,0,3-1.343,3-3V99
					C23,97.343,21.656,96,20,96z"/>
			</g>
		</g>
		<g id="Shape_5_1_">
			<g>
				<path fill="#95CA76" d="M24.611,100.414l-2.16-2.051c-0.516-0.489-1.359-0.489-1.874,0l-7.895,7.499l-3.269-3.105
					c-0.516-0.49-1.359-0.49-1.875,0l-2.16,2.051c-0.515,0.489-0.515,1.29,0,1.78l6.365,6.045c0.258,0.245,0.599,0.367,0.938,0.367
					c0.34,0,0.681-0.122,0.939-0.367l10.99-10.438C25.127,101.705,25.127,100.904,24.611,100.414z"/>
			</g>
		</g>
	</g>
	<g id="check_copy_1_">
		<g id="Rounded_Rectangle_2_2_">
			<g>
				<path fill="#FFFFFF" d="M20,36H8c-1.657,0-3,1.343-3,3v12c0,1.657,1.343,3,3,3h12c1.656,0,3-1.343,3-3V39
					C23,37.343,21.656,36,20,36z"/>
			</g>
		</g>
		<g id="Image_xA0_60" display="none">
			<g display="inline">
				<path fill="#95CA76" d="M24.611,40.414l-2.16-2.051c-0.516-0.489-1.359-0.489-1.874,0l-7.895,7.499l-3.269-3.105
					c-0.516-0.49-1.359-0.49-1.875,0l-2.16,2.051c-0.515,0.489-0.515,1.29,0,1.78l6.365,6.045C12.002,52.878,12.342,53,12.682,53
					c0.34,0,0.681-0.122,0.939-0.367l10.99-10.438C25.127,41.705,25.127,40.904,24.611,40.414z"/>
			</g>
		</g>
	</g>
	<g id="check_copy_2_1_">
		<g id="Rounded_Rectangle_2_3_">
			<g>
				<path fill="#FFFFFF" d="M20,6H8C6.343,6,5,7.343,5,9v12c0,1.657,1.343,3,3,3h12c1.656,0,3-1.343,3-3V9C23,7.343,21.656,6,20,6z"
					/>
			</g>
		</g>
		<g id="Image_xA0_64" display="none">
			<g display="inline">
				<path fill="#95CA76" d="M24.611,10.414l-2.16-2.051c-0.516-0.489-1.359-0.489-1.874,0l-7.895,7.499l-3.269-3.105
					c-0.516-0.49-1.359-0.49-1.875,0l-2.16,2.051c-0.515,0.489-0.515,1.29,0,1.78l6.365,6.045C12.002,22.878,12.342,23,12.682,23
					c0.34,0,0.681-0.122,0.939-0.367l10.99-10.438C25.127,11.705,25.127,10.904,24.611,10.414z"/>
			</g>
		</g>
	</g>
</g>
</svg>
