<?xml version="1.0" encoding="utf-8"?>
<!-- Generator: Adobe Illustrator 16.2.1, SVG Export Plug-In . SVG Version: 6.00 Build 0)  -->
<!DOCTYPE svg PUBLIC "-//W3C//DTD SVG 1.1//EN" "http://www.w3.org/Graphics/SVG/1.1/DTD/svg11.dtd">
<svg version="1.1" id="Layer_1" xmlns="http://www.w3.org/2000/svg" xmlns:xlink="http://www.w3.org/1999/xlink" x="0px" y="0px"
	 width="53.411px" height="98.648px" viewBox="0 0 53.411 98.648" enable-background="new 0 0 53.411 98.648" xml:space="preserve">
<g>
	<g>
		<path fill="#333333" d="M13.293,63.215c0,0,6.183,6.022,14.213,6.022c4.335,0,8.271-2.248,8.271-6.905
			c0-9.637-27.141-8.673-27.141-25.937c0-8.27,6.183-14.694,15.096-16.139v-7.548h6.905v7.387
			c9.314,0.803,14.133,5.861,14.133,5.861l-4.497,8.431c0,0-5.46-4.978-12.606-4.978c-4.818,0-8.592,2.811-8.592,6.825
			c0,9.555,27.06,7.869,27.06,25.856c0,8.19-5.701,15.177-15.497,16.461v7.387h-6.905v-7.387c-10.358-1.205-16.06-7.548-16.06-7.548
			L13.293,63.215z"/>
	</g>
	<g>
		<line fill="#333333" x1="27.256" y1="11.959" x2="27.256" y2="20.969"/>
		<rect x="22.487" y="11.959" fill="#333333" width="9.54" height="9.01"/>
	</g>
	<g>
		<line fill="#333333" x1="27.256" y1="77.149" x2="27.256" y2="86.159"/>
		<rect x="22.487" y="77.149" fill="#333333" width="9.54" height="9.01"/>
	</g>
	<polygon fill="#333333" points="16.492,13.019 27.042,0 37.593,13.019 	"/>
	<polygon fill="#333333" points="47.118,20.097 53.411,35.628 36.913,38.566 	"/>
	<polygon fill="#333333" points="4.527,76.652 0,60.518 16.722,59.432 	"/>
	<polygon fill="#333333" points="37.593,85.629 27.042,98.648 16.492,85.629 	"/>
</g>
</svg>
